<mxfile host="app.diagrams.net" modified="2024-04-23T06:40:35.369Z" agent="Mozilla/5.0 (Windows NT 10.0; Win64; x64) AppleWebKit/537.36 (KHTML, like Gecko) Chrome/123.0.0.0 Safari/537.36" version="24.2.8" etag="fJ73nn_2x0a7Kr93byd6" type="github">
  <diagram name="Page-1" id="jEis8SR5fVmK5BxohynO">
    <mxGraphModel>
      <root>
        <mxCell id="0" />
        <mxCell id="1" parent="0" />
      </root>
    </mxGraphModel>
  </diagram>
</mxfile>
